<svg xmlns="http://www.w3.org/2000/svg" viewBox="0 0 100 67" width="100" height="67" fill="none"><g clip-path="url(#sc4)"><path d="M0 4.5a4 4 0 0 1 4-4h92a4 4 0 0 1 4 4v58a4 4 0 0 1-4 4H4a4 4 0 0 1-4-4v-58z" fill="url(#sc3)"/><g fill="#bdbebf"><path d="M58.824 5.44l8.823-9.389 8.456 9.389 8.823-9.389 8.824 9.797 3.651-5.26c.397.027.76.157 1.128.361.882.708 1.162 1.196 1.471 2.449l-6.25 8.98-8.824-9.797-8.823 9.389-8.456-9.389-8.823 9.389L50 2.583l-8.824 9.389-8.824-9.389-8.824 9.389-8.823-9.389-8.824 9.389L0 5.798V3.399C.253 2.273.486 1.763 1.471.95l4.412 4.49 8.824-9.389L23.53 5.44l8.824-9.389 8.824 9.389L50-3.949l8.824 9.389z"/><path d="M67.647 8.993l-8.823 9.389L50 8.993l-8.824 9.389-8.824-9.389-8.824 9.389-8.823-9.389-8.824 9.389L0 12.258v6.481l5.882 6.173 8.824-9.389 8.824 9.389 8.824-9.389 8.824 9.389L50 15.524l8.824 9.389 8.823-9.389 8.456 9.389 8.823-9.389 8.824 9.797 6.802-9.797V8.993L93.75 18.79l-8.824-9.797-8.823 9.389-8.456-9.389z"/><path d="M67.647 21.934l-8.823 9.389L50 21.934l-8.824 9.389-8.824-9.389-8.824 9.389-8.823-9.389-8.824 9.389L0 25.199v6.481l5.882 6.173 8.824-9.389 8.824 9.389 8.824-9.389 8.824 9.389L50 28.465l8.824 9.389 8.823-9.389 8.456 9.389 8.823-9.389 8.824 9.797 6.802-9.797v-6.531l-6.802 9.797-8.824-9.797-8.823 9.389-8.456-9.389z"/><path d="M67.647 34.875l-8.823 9.389L50 34.875l-8.824 9.389-8.824-9.389-8.824 9.389-8.823-9.389-8.824 9.389L0 38.141v6.481l5.882 6.173 8.824-9.389 8.824 9.389 8.824-9.389 8.824 9.389L50 41.406l8.824 9.389 8.823-9.389 8.456 9.389 8.823-9.389 8.824 9.797 6.802-9.797v-6.531l-6.802 9.797-8.824-9.797-8.823 9.389-8.456-9.389z"/><path d="M67.647 47.816l-8.823 9.389L50 47.816l-8.824 9.389-8.824-9.389-8.824 9.389-8.823-9.389-8.824 9.389L0 51.082v6.481l5.882 6.173 8.824-9.389 8.824 9.389 8.824-9.389 8.824 9.389L50 54.348l8.824 9.389 8.823-9.389 8.456 9.389 8.823-9.389 8.824 9.797 6.802-9.797v-6.531l-6.802 9.797-8.824-9.797-8.823 9.389-8.456-9.389z"/><path d="M58.824 70.146l8.823-9.389 8.456 9.389 8.823-9.389 8.824 9.797 6.802-9.797v6.531l-6.802 9.797-8.824-9.797-8.823 9.389-8.456-9.389-8.823 9.389L50 67.289l-8.824 9.389-8.824-9.389-8.824 9.389-8.823-9.389-8.824 9.389-3.615-5.016c-.719-.184-1.165-.538-1.665-1.238a2.31 2.31 0 0 1-.189-.276c-.247-.424-.373-.947-.413-1.633v-4.49l5.882 6.123 8.824-9.389 8.824 9.389 8.824-9.389 8.824 9.389L50 60.757l8.824 9.389z"/></g><g filter="url(#sc1)"><path d="M6.489 59.773l.84-2.827h.481L6.689 60.5h-.393l-1.123-3.555h.483l.833 2.827zm3.635-.193H8.938l-.286.92h-.452l1.147-3.555h.378l1.128 3.555h-.449l-.281-.92zm-1.064-.393h.945l-.469-1.543-.476 1.543zm2.881.93h1.738v.383h-2.19v-3.555h.452v3.171zm4.724-3.171l.005 2.407c-.003.166-.033.322-.09.466a1.18 1.18 0 0 1-.239.381 1.15 1.15 0 0 1-.366.256c-.142.062-.297.093-.466.093s-.33-.031-.471-.093a1.09 1.09 0 0 1-.364-.254 1.2 1.2 0 0 1-.237-.381 1.32 1.32 0 0 1-.088-.469l.005-2.407h.43l.01 2.407a1.06 1.06 0 0 0 .049.305c.033.098.078.184.137.259s.134.135.222.181a.67.67 0 0 0 .308.068c.116 0 .217-.022.305-.066a.66.66 0 0 0 .22-.181c.06-.077.106-.163.137-.261a1.12 1.12 0 0 0 .051-.305l.007-2.407h.437zm2.727 1.912h-1.484v1.26h1.731v.383h-2.183v-3.555h2.161v.386h-1.709v1.142h1.484v.383zm1.001 1.643v-3.555h.823c.247.003.468.046.662.127s.36.192.493.337a1.42 1.42 0 0 1 .308.518c.072.2.108.422.11.666v.261a2.03 2.03 0 0 1-.11.669 1.45 1.45 0 0 1-.308.518 1.4 1.4 0 0 1-.493.337c-.194.08-.414.12-.662.122h-.823zm.459-3.184v2.815h.364c.192-.002.358-.035.498-.1a.97.97 0 0 0 .347-.271 1.11 1.11 0 0 0 .205-.403 1.83 1.83 0 0 0 .071-.503v-.266c-.002-.181-.025-.347-.071-.501s-.114-.288-.205-.4a.95.95 0 0 0-.347-.269c-.14-.065-.306-.099-.498-.102h-.364zm7.895 2.114a1.56 1.56 0 0 1-.127.454 1.18 1.18 0 0 1-.249.354 1.09 1.09 0 0 1-.361.23c-.138.054-.293.081-.464.081-.146 0-.28-.02-.4-.061s-.225-.1-.32-.173a1.18 1.18 0 0 1-.242-.259c-.067-.099-.123-.208-.168-.325a2.09 2.09 0 0 1-.1-.369 2.62 2.62 0 0 1-.034-.391v-.496a2.62 2.62 0 0 1 .034-.391 2.09 2.09 0 0 1 .1-.369c.046-.117.102-.225.168-.325s.149-.188.242-.261.201-.13.32-.171.252-.063.4-.063c.177 0 .336.028.476.083a1.02 1.02 0 0 1 .361.232c.101.099.181.219.242.359s.103.295.122.464h-.452c-.015-.107-.04-.207-.076-.3s-.084-.174-.144-.244a.62.62 0 0 0-.222-.163c-.086-.041-.189-.061-.308-.061-.107 0-.203.018-.286.054a.66.66 0 0 0-.212.142.86.86 0 0 0-.149.21 1.44 1.44 0 0 0-.095.254c-.024.09-.042.181-.054.276a2.58 2.58 0 0 0-.015.271v.5a2.65 2.65 0 0 0 .015.273c.011.093.029.185.054.276a1.44 1.44 0 0 0 .095.254c.039.08.089.151.149.212a.69.69 0 0 0 .212.144c.081.034.177.051.286.051a.77.77 0 0 0 .308-.056c.088-.038.162-.09.222-.156a.8.8 0 0 0 .144-.239c.036-.093.061-.193.076-.3h.452zm2.932-2.485l.005 2.407c-.003.166-.033.322-.09.466a1.18 1.18 0 0 1-.239.381c-.103.107-.225.193-.366.256s-.297.093-.466.093-.33-.031-.471-.093-.263-.146-.364-.254a1.2 1.2 0 0 1-.237-.381c-.057-.147-.086-.303-.088-.469l.005-2.407h.43l.01 2.407a1.06 1.06 0 0 0 .049.305c.032.098.078.184.137.259a.69.69 0 0 0 .222.181.67.67 0 0 0 .308.068c.116 0 .217-.022.305-.066a.66.66 0 0 0 .22-.181c.06-.077.106-.163.137-.261s.048-.199.051-.305l.007-2.407h.437zm2.632 2.656c0-.109-.025-.201-.076-.276s-.112-.137-.19-.188a1.2 1.2 0 0 0-.259-.129l-.269-.093c-.125-.041-.253-.09-.383-.147s-.247-.127-.354-.21a1.09 1.09 0 0 1-.261-.293c-.067-.114-.1-.247-.1-.4a.83.83 0 0 1 .1-.41 1 1 0 0 1 .266-.305c.109-.083.233-.146.371-.188s.277-.066.417-.066c.155 0 .304.026.447.078s.27.122.381.215a1.06 1.06 0 0 1 .266.337 1.01 1.01 0 0 1 .105.442h-.464a.97.97 0 0 0-.076-.278c-.037-.085-.087-.157-.149-.217s-.136-.107-.222-.139-.181-.051-.288-.051c-.086 0-.171.012-.254.037a.7.7 0 0 0-.22.11.57.57 0 0 0-.154.181.53.53 0 0 0-.056.249c.002.102.028.19.078.261a.69.69 0 0 0 .19.178 1.33 1.33 0 0 0 .251.122l.256.086.266.095c.089.034.176.074.259.12s.16.097.232.154a1.02 1.02 0 0 1 .188.195.84.84 0 0 1 .124.239c.031.086.046.182.046.288 0 .16-.036.299-.107.418s-.161.218-.273.298a1.28 1.28 0 0 1-.381.178 1.59 1.59 0 0 1-.425.059c-.158 0-.312-.024-.464-.073s-.287-.119-.408-.21-.216-.205-.291-.337a.97.97 0 0 1-.12-.454h.461a.87.87 0 0 0 .09.295.74.74 0 0 0 .176.217.77.77 0 0 0 .247.134c.094.029.197.044.308.044.088 0 .174-.011.259-.032a.74.74 0 0 0 .23-.103.58.58 0 0 0 .163-.176.49.49 0 0 0 .064-.254zm3.54-2.27h-1.099V60.5h-.439v-3.169h-1.099v-.386h2.637v.386zm2.917 1.597c-.002.127-.013.256-.034.386a2.06 2.06 0 0 1-.093.373 1.61 1.61 0 0 1-.164.337c-.065.104-.143.195-.234.274s-.196.14-.315.185a1.12 1.12 0 0 1-.395.066 1.14 1.14 0 0 1-.398-.066c-.117-.046-.221-.107-.312-.185a1.24 1.24 0 0 1-.237-.274 1.78 1.78 0 0 1-.166-.339 2.21 2.21 0 0 1-.095-.374 2.55 2.55 0 0 1-.034-.383v-.405a2.77 2.77 0 0 1 .032-.383 2.19 2.19 0 0 1 .095-.376c.044-.12.098-.233.163-.337s.146-.198.237-.276.195-.142.313-.186.251-.068.398-.068.279.023.398.068.224.105.315.183.169.17.234.276.121.217.163.337a1.93 1.93 0 0 1 .095.376c.021.13.032.259.034.386v.405zm-.447-.41l-.017-.264c-.01-.093-.027-.184-.051-.273s-.054-.177-.093-.259a.82.82 0 0 0-.146-.217.63.63 0 0 0-.208-.149c-.08-.038-.172-.056-.278-.056a.64.64 0 0 0-.276.056c-.08.037-.149.088-.207.151s-.107.134-.147.217a1.49 1.49 0 0 0-.095.259 2.19 2.19 0 0 0-.051.273l-.017.261v.41l.017.264c.011.093.029.185.054.276s.056.176.095.259a.86.86 0 0 0 .146.22.68.68 0 0 0 .208.149c.08.037.172.056.278.056s.199-.019.278-.056.151-.087.208-.149a.83.83 0 0 0 .144-.217 1.44 1.44 0 0 0 .093-.259c.024-.091.041-.183.049-.276l.017-.266v-.41zm1.633-1.572l.579 1.777.625-1.777h.562V60.5h-.44v-1.419l.037-1.484-.657 1.914h-.259l-.603-1.863.037 1.433V60.5h-.439v-3.555h.559zm4.463 1.912h-1.484v1.26h1.731v.383h-2.183v-3.555h2.161v.386h-1.709v1.142h1.484v.383zm2.224.193h-.711v1.45h-.449v-3.555h1.042c.166.003.322.027.469.071s.274.11.383.198a.9.9 0 0 1 .259.332c.063.132.095.287.095.466a.94.94 0 0 1-.051.317.93.93 0 0 1-.137.261c-.059.078-.129.147-.21.207a1.35 1.35 0 0 1-.269.154l.754 1.519-.002.029h-.476l-.698-1.45zm-.711-.371h.605a.96.96 0 0 0 .286-.046c.09-.031.168-.075.234-.132a.61.61 0 0 0 .161-.208c.039-.083.058-.178.058-.286a.73.73 0 0 0-.056-.298.58.58 0 0 0-.156-.215c-.067-.059-.146-.102-.239-.132s-.191-.045-.3-.046h-.593v1.362z" fill="#fff"/></g><g filter="url(#sc2)"><path d="M7.023 52.5h-.723v-4.766l-1.488.566v-.66l2.152-.828h.059V52.5zm5.949 0H9.246v-.52l1.863-2.07.418-.492c.112-.143.202-.275.27-.395s.116-.237.144-.344a1.32 1.32 0 0 0 .043-.336c0-.141-.024-.272-.07-.395a.88.88 0 0 0-.199-.324c-.086-.091-.191-.163-.316-.215s-.262-.082-.418-.082c-.19 0-.355.027-.496.082s-.254.133-.348.234-.16.22-.207.363-.066.303-.066.48h-.727c0-.24.042-.465.125-.676s.203-.4.359-.559.352-.285.578-.379.49-.141.781-.141a2.03 2.03 0 0 1 .723.121c.216.078.399.188.547.328a1.41 1.41 0 0 1 .34.5 1.61 1.61 0 0 1 .121.629 1.54 1.54 0 0 1-.086.504 2.53 2.53 0 0 1-.234.488 3.97 3.97 0 0 1-.34.481l-.406.469-1.527 1.656h2.855v.59zm2.16-3.191h.516a1.42 1.42 0 0 0 .481-.074c.141-.05.258-.117.352-.203s.169-.189.219-.308.074-.251.074-.395c0-.331-.085-.579-.254-.746s-.417-.254-.742-.254c-.154 0-.294.023-.422.07a.91.91 0 0 0-.324.195c-.088.086-.158.189-.207.308s-.074.254-.074.402h-.727a1.5 1.5 0 0 1 .484-1.109c.154-.143.337-.255.551-.336a1.98 1.98 0 0 1 .719-.125 2.2 2.2 0 0 1 .699.105 1.48 1.48 0 0 1 .543.305c.151.135.268.303.352.504s.125.432.125.695a1.22 1.22 0 0 1-.051.34c-.034.117-.086.232-.156.344s-.162.214-.274.313a1.44 1.44 0 0 1-.395.242c.185.06.338.138.461.234s.224.204.297.324a1.17 1.17 0 0 1 .156.379 1.72 1.72 0 0 1 .047.395c0 .266-.046.501-.137.707s-.217.38-.379.523a1.7 1.7 0 0 1-.574.324c-.219.073-.456.109-.711.109-.25 0-.486-.035-.707-.105s-.409-.173-.57-.309a1.51 1.51 0 0 1-.387-.496c-.094-.195-.141-.418-.141-.668h.723c0 .148.025.284.074.406a.89.89 0 0 0 .219.313c.094.086.207.152.34.199a1.37 1.37 0 0 0 .449.07c.164 0 .313-.021.445-.062s.246-.111.34-.199.165-.198.215-.328a1.28 1.28 0 0 0 .078-.469c0-.177-.03-.329-.09-.457s-.139-.238-.246-.324-.232-.15-.383-.191a1.82 1.82 0 0 0-.492-.062h-.516v-.586zm6.891 1.281h.793v.59h-.793v1.32h-.723v-1.32h-2.594v-.426l2.547-3.941h.769v3.777zm-2.516 0h1.793v-2.816l-.117.219-1.676 2.598zm9.453-.941l.285-2.836h2.918v.703h-2.309l-.16 1.516a2.01 2.01 0 0 1 .402-.172 1.8 1.8 0 0 1 .543-.074c.263 0 .499.045.707.137a1.49 1.49 0 0 1 .531.387c.146.164.258.363.336.598s.117.495.117.781a2.5 2.5 0 0 1-.109.754 1.65 1.65 0 0 1-.332.602c-.146.167-.331.298-.555.395s-.487.141-.789.141c-.232 0-.451-.032-.656-.098s-.389-.163-.551-.293-.29-.294-.395-.492-.165-.428-.191-.691h.688c.044.323.163.568.355.734s.445.25.75.25a1.1 1.1 0 0 0 .457-.09.91.91 0 0 0 .332-.262c.091-.115.159-.251.203-.41s.07-.336.07-.531c0-.177-.026-.342-.078-.496s-.122-.286-.219-.398-.215-.204-.355-.27a1.14 1.14 0 0 0-.484-.098 1.57 1.57 0 0 0-.312.027c-.086.016-.164.039-.234.07s-.137.069-.199.113l-.187.152-.578-.148zm7.211-2.84v.648h-.062c-.24 0-.455.025-.645.074a1.9 1.9 0 0 0-.496.203 1.53 1.53 0 0 0-.371.309 1.74 1.74 0 0 0-.254.387c-.068.141-.12.288-.156.441a2.82 2.82 0 0 0-.07.469c.068-.081.146-.155.234-.223a1.55 1.55 0 0 1 .285-.18 1.58 1.58 0 0 1 .332-.121 1.48 1.48 0 0 1 .375-.047c.284 0 .529.055.734.164a1.47 1.47 0 0 1 .508.426c.133.177.23.378.293.602a2.53 2.53 0 0 1 .094.684 2.43 2.43 0 0 1-.113.75c-.073.234-.184.44-.332.617s-.333.313-.555.414-.473.152-.762.152a1.71 1.71 0 0 1-.566-.09c-.169-.06-.322-.141-.457-.242s-.254-.227-.355-.367-.186-.292-.254-.453-.115-.329-.148-.504a2.74 2.74 0 0 1-.051-.523v-.34c0-.26.016-.521.047-.781s.09-.514.168-.754.183-.464.316-.672a2.08 2.08 0 0 1 .5-.547 2.38 2.38 0 0 1 .723-.363c.279-.089.604-.133.977-.133h.063zm-.945 2.563c-.122 0-.241.02-.355.059a1.24 1.24 0 0 0-.32.164c-.099.07-.186.155-.262.254a1.25 1.25 0 0 0-.18.328v.242c0 .25.03.473.09.668s.141.355.242.488a1.08 1.08 0 0 0 .352.305.91.91 0 0 0 .418.102c.169 0 .319-.033.449-.098a.94.94 0 0 0 .328-.27c.091-.115.159-.251.203-.41a1.87 1.87 0 0 0 .07-.523 1.87 1.87 0 0 0-.062-.484 1.3 1.3 0 0 0-.191-.422.97.97 0 0 0-.324-.293.92.92 0 0 0-.457-.109zm6.688-2.152L39.559 52.5h-.758l2.348-5.055H38.07v-.633h3.844v.406zm4.703 1.078c-.003.284-.079.536-.23.758a1.55 1.55 0 0 1-.605.52c.146.063.277.141.395.234s.221.197.305.316.151.25.195.391a1.41 1.41 0 0 1 .07.449 1.57 1.57 0 0 1-.145.688c-.094.201-.223.37-.387.508s-.351.239-.57.313-.453.105-.703.105a2.35 2.35 0 0 1-.715-.105 1.72 1.72 0 0 1-.574-.309 1.49 1.49 0 0 1-.383-.508c-.094-.2-.141-.431-.141-.691 0-.159.022-.309.066-.449s.108-.273.191-.391a1.52 1.52 0 0 1 .301-.32 1.7 1.7 0 0 1 .395-.234c-.125-.062-.238-.137-.34-.223s-.187-.186-.258-.293a1.43 1.43 0 0 1-.164-.355c-.039-.128-.059-.262-.059-.402a1.65 1.65 0 0 1 .125-.66c.083-.195.198-.359.344-.492s.324-.234.527-.305.43-.105.672-.105.462.035.668.105a1.57 1.57 0 0 1 .535.305 1.39 1.39 0 0 1 .355.492c.086.193.129.413.129.66zm-.594 2.652a1.14 1.14 0 0 0-.082-.437c-.052-.133-.126-.246-.223-.34s-.212-.171-.348-.223a1.19 1.19 0 0 0-.437-.078 1.21 1.21 0 0 0-.445.078c-.133.052-.246.126-.34.223a.98.98 0 0 0-.219.34c-.049.133-.074.279-.074.438 0 .164.025.311.074.441s.125.236.219.324.207.156.34.203a1.38 1.38 0 0 0 .453.07 1.31 1.31 0 0 0 .438-.07c.133-.047.246-.115.34-.203a.89.89 0 0 0 .223-.324 1.13 1.13 0 0 0 .082-.441zm-.133-2.641c0-.143-.025-.275-.074-.395a.89.89 0 0 0-.199-.309.83.83 0 0 0-.301-.203c-.117-.049-.246-.074-.387-.074s-.268.023-.383.07a.82.82 0 0 0-.297.195.91.91 0 0 0-.195.312c-.044.12-.066.254-.066.402s.022.282.066.402.112.219.195.305.186.148.301.195.246.066.387.066.266-.022.383-.066a.88.88 0 0 0 .301-.195.89.89 0 0 0 .199-.309c.047-.12.07-.253.07-.398zm7.613 3.551c.258 0 .484-.022.68-.066a1.88 1.88 0 0 0 .508-.195 1.37 1.37 0 0 0 .363-.293c.096-.115.175-.24.234-.375s.108-.283.137-.434.047-.31.055-.469c-.062.078-.134.152-.215.223a1.46 1.46 0 0 1-.273.18 1.59 1.59 0 0 1-.34.125c-.122.029-.256.043-.402.043-.281 0-.525-.055-.73-.164s-.371-.258-.504-.437-.23-.383-.293-.609a2.56 2.56 0 0 1-.094-.684c0-.268.036-.521.109-.758s.186-.448.332-.625a1.59 1.59 0 0 1 .551-.426c.221-.107.478-.16.77-.16a1.74 1.74 0 0 1 .59.094 1.46 1.46 0 0 1 .465.254 1.58 1.58 0 0 1 .348.383 2.14 2.14 0 0 1 .234.477c.063.169.108.348.137.535a3.65 3.65 0 0 1 .043.559v.262l-.035.746a3.81 3.81 0 0 1-.141.734c-.068.237-.164.461-.289.672s-.288.391-.488.547-.444.28-.73.371-.626.137-1.02.137h-.074v-.645h.074zM54.367 50c.122 0 .241-.02.356-.059a1.19 1.19 0 0 0 .32-.172c.099-.075.186-.163.262-.262a1.24 1.24 0 0 0 .184-.336v-.234c0-.253-.03-.478-.09-.676a1.54 1.54 0 0 0-.238-.5 1.05 1.05 0 0 0-.348-.316.84.84 0 0 0-.418-.109.96.96 0 0 0-.449.102c-.13.068-.241.161-.332.281a1.27 1.27 0 0 0-.203.422 1.87 1.87 0 0 0-.07.523c0 .167.021.331.063.492s.104.301.188.426a1.05 1.05 0 0 0 .32.305c.13.076.282.113.457.113zm6.664-1.703c-.003.284-.079.536-.23.758a1.55 1.55 0 0 1-.605.52c.146.063.277.141.394.234a1.4 1.4 0 0 1 .305.316 1.37 1.37 0 0 1 .195.391 1.41 1.41 0 0 1 .07.449c0 .258-.048.487-.145.688s-.223.37-.387.508a1.73 1.73 0 0 1-.57.313c-.219.07-.453.105-.703.105a2.35 2.35 0 0 1-.715-.105 1.72 1.72 0 0 1-.574-.309c-.162-.138-.289-.307-.383-.508s-.141-.431-.141-.691c0-.159.022-.309.066-.449a1.36 1.36 0 0 1 .191-.391 1.52 1.52 0 0 1 .301-.32 1.7 1.7 0 0 1 .395-.234c-.125-.062-.238-.137-.34-.223a1.44 1.44 0 0 1-.258-.293c-.07-.109-.125-.228-.164-.355s-.059-.262-.059-.402c0-.247.042-.468.125-.66s.198-.359.344-.492.324-.234.527-.305.43-.105.672-.105.462.035.668.105a1.57 1.57 0 0 1 .535.305 1.39 1.39 0 0 1 .355.492c.086.193.129.413.129.66zm-.594 2.652a1.14 1.14 0 0 0-.082-.437.95.95 0 0 0-.223-.34c-.096-.096-.212-.171-.348-.223a1.19 1.19 0 0 0-.437-.078 1.21 1.21 0 0 0-.445.078.95.95 0 0 0-.34.223.98.98 0 0 0-.219.34c-.05.133-.074.279-.074.438 0 .164.025.311.074.441s.125.236.219.324.207.156.34.203a1.38 1.38 0 0 0 .453.07 1.31 1.31 0 0 0 .438-.07c.133-.047.246-.115.34-.203a.89.89 0 0 0 .223-.324 1.13 1.13 0 0 0 .082-.441zm-.133-2.641c0-.143-.025-.275-.074-.395s-.113-.223-.199-.309a.83.83 0 0 0-.301-.203c-.117-.049-.246-.074-.387-.074s-.268.023-.383.07a.82.82 0 0 0-.297.195.91.91 0 0 0-.195.312c-.044.12-.067.254-.067.402s.022.282.067.402.112.219.195.305.186.148.301.195.246.066.387.066.266-.022.383-.066a.88.88 0 0 0 .301-.195.89.89 0 0 0 .199-.309c.047-.12.07-.253.07-.398zm5.633-1.09L63.582 52.5h-.758l2.348-5.055h-3.078v-.633h3.844v.406zm3.867-.41v.648h-.062c-.24 0-.454.025-.644.074a1.9 1.9 0 0 0-.496.203 1.53 1.53 0 0 0-.371.309 1.74 1.74 0 0 0-.254.387 2.17 2.17 0 0 0-.156.441 2.83 2.83 0 0 0-.07.469c.068-.081.146-.155.234-.223a1.55 1.55 0 0 1 .285-.18 1.58 1.58 0 0 1 .332-.121 1.48 1.48 0 0 1 .375-.047c.284 0 .529.055.734.164s.375.249.508.426a1.8 1.8 0 0 1 .293.602 2.53 2.53 0 0 1 .094.684 2.43 2.43 0 0 1-.113.75c-.073.234-.184.44-.332.617s-.333.313-.555.414-.473.152-.762.152a1.71 1.71 0 0 1-.567-.09c-.169-.06-.322-.141-.457-.242s-.254-.227-.356-.367-.186-.292-.254-.453-.114-.329-.148-.504a2.74 2.74 0 0 1-.051-.523v-.34c0-.26.016-.521.047-.781s.09-.514.168-.754a2.94 2.94 0 0 1 .316-.672 2.08 2.08 0 0 1 .5-.547 2.38 2.38 0 0 1 .723-.363c.279-.089.604-.133.977-.133h.063zm-.945 2.563c-.122 0-.241.02-.355.059a1.24 1.24 0 0 0-.32.164c-.099.07-.186.155-.262.254s-.135.208-.18.328v.242c0 .25.03.473.09.668a1.56 1.56 0 0 0 .242.488 1.08 1.08 0 0 0 .352.305.91.91 0 0 0 .418.102.99.99 0 0 0 .449-.098.94.94 0 0 0 .328-.27c.091-.115.159-.251.203-.41a1.87 1.87 0 0 0 .07-.523 1.87 1.87 0 0 0-.062-.484 1.3 1.3 0 0 0-.191-.422.97.97 0 0 0-.324-.293.92.92 0 0 0-.457-.109zm8.148.277l.285-2.836h2.918v.703h-2.309l-.16 1.516a2.01 2.01 0 0 1 .402-.172 1.8 1.8 0 0 1 .543-.074c.263 0 .499.045.707.137a1.49 1.49 0 0 1 .531.387c.146.164.258.363.336.598a2.46 2.46 0 0 1 .117.781 2.5 2.5 0 0 1-.109.754 1.65 1.65 0 0 1-.332.602c-.146.167-.331.298-.555.395s-.487.141-.789.141c-.232 0-.451-.032-.656-.098s-.389-.163-.551-.293-.29-.294-.395-.492-.165-.428-.191-.691h.688c.044.323.163.568.356.734s.445.25.75.25a1.1 1.1 0 0 0 .457-.09.91.91 0 0 0 .332-.262 1.14 1.14 0 0 0 .203-.41c.047-.159.07-.336.07-.531 0-.177-.026-.342-.078-.496a1.14 1.14 0 0 0-.219-.398c-.096-.115-.215-.204-.355-.27a1.14 1.14 0 0 0-.484-.098 1.57 1.57 0 0 0-.312.027c-.086.016-.164.039-.234.07a1.16 1.16 0 0 0-.199.113l-.187.152-.578-.148zm7.477.941h.793v.59h-.793v1.32h-.723v-1.32h-2.594v-.426l2.547-3.941h.77v3.777zm-2.516 0h1.793v-2.816l-.117.219-1.676 2.598zm5.234-1.281h.516a1.42 1.42 0 0 0 .48-.074c.141-.05.258-.117.352-.203s.169-.189.219-.308.074-.251.074-.395c0-.331-.085-.579-.254-.746s-.417-.254-.742-.254c-.154 0-.294.023-.422.07s-.233.109-.324.195-.158.189-.207.308-.074.254-.074.402h-.727a1.5 1.5 0 0 1 .125-.609c.086-.193.206-.359.359-.5s.337-.255.551-.336.456-.125.719-.125a2.2 2.2 0 0 1 .699.105 1.48 1.48 0 0 1 .543.305c.151.135.268.303.352.504s.125.432.125.695a1.22 1.22 0 0 1-.051.34c-.034.117-.086.232-.156.344s-.161.214-.273.313a1.44 1.44 0 0 1-.394.242c.185.06.338.138.461.234s.224.204.297.324a1.17 1.17 0 0 1 .156.379 1.72 1.72 0 0 1 .047.395c0 .266-.045.501-.137.707s-.217.38-.379.523-.353.249-.574.324-.456.109-.711.109c-.25 0-.486-.035-.707-.105s-.409-.173-.57-.309-.29-.301-.387-.496-.141-.418-.141-.668h.723c0 .148.025.284.074.406a.89.89 0 0 0 .219.313c.094.086.207.152.34.199a1.37 1.37 0 0 0 .449.07c.164 0 .313-.021.445-.062s.246-.111.34-.199a.87.87 0 0 0 .215-.328c.052-.133.078-.289.078-.469s-.03-.329-.09-.457-.139-.238-.246-.324a1.02 1.02 0 0 0-.383-.191 1.82 1.82 0 0 0-.492-.062h-.516v-.586zm7.449 3.191h-3.727v-.52l1.863-2.07.418-.492c.112-.143.202-.275.27-.395a1.55 1.55 0 0 0 .144-.344c.029-.109.043-.221.043-.336 0-.141-.023-.272-.07-.395a.88.88 0 0 0-.199-.324c-.086-.091-.191-.163-.316-.215s-.262-.082-.418-.082c-.19 0-.356.027-.496.082a.93.93 0 0 0-.348.234c-.091.099-.16.22-.207.363s-.066.303-.066.48h-.727c0-.24.042-.465.125-.676s.203-.4.359-.559.352-.285.578-.379.49-.141.781-.141a2.03 2.03 0 0 1 .723.121 1.55 1.55 0 0 1 .547.328 1.41 1.41 0 0 1 .34.5 1.61 1.61 0 0 1 .121.629 1.54 1.54 0 0 1-.086.504 2.53 2.53 0 0 1-.234.488 3.97 3.97 0 0 1-.34.481l-.406.469-1.527 1.656h2.855v.59z" fill="#fff"/></g><g clip-path="url(#sc5)"><path d="M65.825 14.624h-.1v-.686h-.004l-.279.686h-.065l-.278-.686h-.004v.686h-.1v-.766h.184l.231.566h.004l.226-.566h.184v.766h0zm-.98-.693h-.257v.693h-.1v-.693h-.257v-.073h.615v.073h0zm-41.247-2.227c0 1.675-1.016 3.09-2.882 3.09s-2.882-1.415-2.882-3.09 1.015-3.09 2.881-3.09 2.882 1.415 2.882 3.09h0zm-5.02 0c0 1.245.709 2.49 2.138 2.49s2.138-1.245 2.138-2.49-.709-2.49-2.138-2.49-2.138 1.245-2.138 2.49h0zm4.887-2.92h.826l1.913 5.127h.024l1.89-5.127h.768l-2.279 5.84h-.792l-2.35-5.84h0zm6.109 3.113c.012 1.041.579 2.297 2.008 2.297 1.087 0 1.677-.611 1.913-1.494h.744c-.319 1.324-1.122 2.094-2.657 2.094-1.937 0-2.752-1.426-2.752-3.09 0-1.539.815-3.09 2.752-3.09 1.96 0 2.74 1.641 2.681 3.282h-4.689 0zm3.945-.6c-.035-1.075-.732-2.083-1.937-2.083-1.216 0-1.889 1.019-2.008 2.083h3.945zm8.389-.804c-.036-.883-.744-1.279-1.595-1.279-.661 0-1.441.249-1.441 1.007 0 .634.756.861 1.264.985l.992.215c.85.124 1.737.6 1.737 1.618 0 1.268-1.311 1.755-2.445 1.755-1.418 0-2.386-.634-2.504-2.06h.744c.059.962.803 1.46 1.795 1.46.697 0 1.666-.294 1.666-1.109 0-.679-.662-.905-1.335-1.064l-.957-.204c-.968-.249-1.7-.566-1.7-1.562 0-1.188 1.216-1.641 2.291-1.641 1.216 0 2.185.611 2.232 1.879h-.744 0zm2.783-1.709h1.24v.6h-1.24v3.939c0 .464.071.736.602.77.212 0 .425-.011.638-.034v.611l-.661.022c-.992 0-1.335-.317-1.323-1.313V9.384h-.72v-.6h.72V7.03h.744v1.754h0zm7.143 2.92c0 1.675-1.016 3.09-2.882 3.09s-2.882-1.415-2.882-3.09 1.016-3.09 2.882-3.09 2.882 1.415 2.882 3.09zm-5.02 0c0 1.245.709 2.49 2.138 2.49s2.138-1.245 2.138-2.49-.709-2.49-2.138-2.49-2.138 1.245-2.138 2.49zm10.292-1.086c-.201-.871-.756-1.404-1.724-1.404-1.429 0-2.138 1.245-2.138 2.49s.709 2.49 2.138 2.49c.921 0 1.677-.69 1.771-1.664h.744c-.201 1.404-1.157 2.264-2.515 2.264-1.866 0-2.882-1.415-2.882-3.09s1.016-3.09 2.882-3.09c1.299 0 2.303.668 2.469 2.004h-.744zm1.573-4.075h.744v5.071l3.378-2.829h.992l-2.598 2.162 2.776 3.679h-.933l-2.409-3.181-1.205.962v2.218h-.744V6.543h0zM37.745 8.731v.709a2.03 2.03 0 0 0-1.783 2.073v3.113h-.745v-5.84h.685v1.369h.023c.32-.795.963-1.309 1.819-1.423h0z" fill="#2f3337"/><path d="M6 6.5h10.435v10h-5.362c1.846-.629 3.409-2.214 3.821-4.071.534-2.409-1.07-4.362-3.584-4.362-2.27 0-4.503 1.592-5.309 3.674V6.5zm7.453 5.893c0 2.071-1.335 3.75-2.981 3.75s-2.981-1.679-2.981-3.75 1.335-3.75 2.981-3.75 2.981 1.679 2.981 3.75z" fill="#ff1f2c"/></g><g fill="#ff1f2c"><path d="M38.706 22.049a.55.55 0 0 1-.277.476h2.707a1.14 1.14 0 0 1 1.128.988l.731 5.49a1.14 1.14 0 0 1-1.128 1.288h-3.307v.733h.037a.11.11 0 0 1 .11.11c0 .013-.002.025-.006.037h.302a.22.22 0 0 1 .22.22.22.22 0 0 1-.22.22h-.027c-.037.317-.059 1.018.147 1.282.108.138.229.256.341.366.156.153.295.29.36.439.088.205.455 4.041.627 5.934.062.342.052 1.157-.479 1.685h-.039a.11.11 0 0 1-.082.183H36.53a.11.11 0 0 1-.026-.217c-.253-.236-.673-.843-.589-1.652l.157-1.735.432-4.199c.048-.095.137-.176.244-.274.14-.128.31-.283.456-.532.258-.44.258-1.209.221-1.282h-.049a.22.22 0 0 1-.22-.22.22.22 0 0 1 .22-.22h.303c-.004-.012-.006-.024-.006-.037a.11.11 0 0 1 .11-.11h.038v-.733h-3.683a1.14 1.14 0 0 1-1.124-1.314l.861-5.49a1.14 1.14 0 0 1 1.124-.962h2.878a.55.55 0 0 1 .276-1.026.55.55 0 0 1 .553.549z"/><g fill-rule="evenodd"><path d="M65.746 30.098C69.996 29.9 73 29.414 73 28.846c0-.744-5.149-1.347-11.5-1.347S50 28.103 50 28.847c0 .562 2.945 1.044 7.129 1.246l-2.218 9.945c-.025.054-.059.167 0 .186s1.818.008 2.69 0c-.058.325-.168.984-.148 1.022.025.046.74.186.839.162.079-.019 2.057-.642 3.035-.952.929.356 2.813 1.063 2.912 1.045.04-.008.128-.013.228-.019.208-.012.471-.027.487-.074.02-.056-.025-.704-.049-1.022l2.789.07c.025 0 .079-.014.099-.07s-.304-1.633-.469-2.414L65.746 30.1zm-6.961.257a1.76 1.76 0 0 0-.37 0l-1.974 8.776H57.7l1.086-8.776zm1.505.255a37.97 37.97 0 0 1 1.16-.209l1.111.209.79 7.894-1.95.627c-.642-.193-1.935-.599-1.974-.673s.559-5.263.864-7.847zm3.702-.209h.494l1.802 8.822h-1.407l-.888-8.822zm-48.011-1.616c.453-1.735 1.512-5.352 2.129-5.947.049-.037.301-.111.918-.111h3.046c.367 0 .825-.072 1.225-.135.361-.057.674-.106.831-.088.33.037.807.26.807.558v.966c0 .193-.248 1.251-.41 1.941v.001l-.067.288-.587 3.011 1.174.074c.059.03.049.31.037.446a2.88 2.88 0 0 0-.367.186c-.11.074-.404.335-.404.483 0 .119 1.125 6.789 1.688 10.11a.58.58 0 0 1-.22.186c-.11.037-.22.037-.294-.074l-.147-.223c-.257-1.202-.8-3.628-.918-3.717-.035-.026-.059-.048-.08-.067-.068-.062-.099-.09-.324-.119l-5.101.149.44 2.342c0 .037-.022.126-.11.186s-.33-.074-.44-.149l-.587-2.342-3.854.037-.844 5.575c-.037.05-.139.149-.257.149-.147 0-.367-.074-.367-.149a1231.56 1231.56 0 0 1 .514-5.65l-5.505-1.115c-.208 1.573-.646 4.743-.734 4.832-.024.05-.095.149-.183.149-.11 0-.33 0-.367-.111l.514-5.724c-.183-.025-.558-.082-.587-.112-.037-.037-.44-.52-.514-.929s-.037-1.152.147-1.301.477-.372 1.395-.409l.11-.929c.073-.607.242-1.866.33-2.044.11-.223.294-.557.587-.669a3.79 3.79 0 0 1 .44-.037c.146 0 1.945.124 2.826.186l4.11.297zm7.45 2.453l.661 3.42c.049.248.088.78-.147.929h-1.578c.024-.012.081-.074.11-.223s.648-2.812.954-4.126zm-8.441-1.264c.059-.446.538-.582.771-.595l-.33 1.561c-.073.335-.294 1.264-.33 1.338-.029.059-.208.248-.294.335l.184-2.639zm-.477-.743l-5.065-.335c-.367-.037-.785.045-.844.372-.041.226-.101.935-.155 1.563l-.065.741-.037.372a5.53 5.53 0 0 1 1.064-.037c.47.03 2.422.334 3.34.483l1.174.111a5.31 5.31 0 0 0 .073-.52c0-.111.294-2.75.514-2.75zm67.326-8.517l4.48-.198c1.018.085 1.775.198 2.182.907s.902 1.842.815 2.692-.757 1.502-1.629 1.7l-.698.142.698 3.627 1.804-.17c.553 0 2.153.085 2.618.17l.902.198c.029.019.093.079.116.17a1.56 1.56 0 0 1 .029.312.32.32 0 0 1-.145.113l-.137.046-.649.209c-.023 0 .068.623.116.935L94 41.087a.36.36 0 0 0-.058.085l-.058.113c-.136.019-.407.045-.407 0s-.039-.113-.058-.142c-.019.019-.064.034-.087-.057l-1.309-6.319-.524-2.663c-.029-.113-.058-.227-.145-.255-.027-.009-.178.018-.431.064l-2.944.389.436 6.545c-.047.023-.058.066-.058.085 0 .038-.012.113-.058.113a.95.95 0 0 0-.085.009c-.106.013-.264.033-.264-.009s-.039-.095-.058-.113c-.01 0-.035-.017-.058-.085s-.514-4.354-.756-6.489h-1.28l-.32 9.946-.087.17c-.145.019-.442.045-.465 0-.029-.057-.058-.227-.058-.397l.001-.373-.001-9.006c-.008-.022-.009-.051-.011-.084-.005-.094-.012-.214-.163-.256-.204-.057-2.997-.283-3.055-.283s-.145 0-.175.34l-.374 3.326-.353 3.135c0 .085-.058 1.02-.116 1.048a.36.36 0 0 0-.061.043c-.04.033-.085.07-.143.07-.087 0-.262 0-.32-.057-.04-.039.224-4.228.392-6.89l.132-2.148c0-.129.074-1.209.126-1.961l.049-.73a133.02 133.02 0 0 1 .091-1.249l.054-.734c0-.01-.019-.024-.049-.047-.055-.041-.148-.11-.242-.237a2.29 2.29 0 0 1-.436-1.02c-.06-.351-.079-.701-.094-.987l-.022-.344-.087-1.7c.029-.283.145-.567.349-.737s.524-.409 1.484-.482zm-.204 5.695l4.684-.283.436 3.57-3.026.397-2.153.142.058-3.825z"/></g></g></g><defs><filter id="sc1" x="4.461" y="56.897" width="46.071" height="5.078" filterUnits="userSpaceOnUse" color-interpolation-filters="sRGB"><feFlood flood-opacity="0" result="A"/><feColorMatrix in="SourceAlpha" values="0 0 0 0 0 0 0 0 0 0 0 0 0 0 0 0 0 0 127 0"/><feOffset dy="0.712689"/><feGaussianBlur stdDeviation=".356"/><feColorMatrix values="0 0 0 0 0 0 0 0 0 0 0 0 0 0 0 0 0 0 0.2 0"/><feBlend in2="A"/><feBlend in="SourceGraphic"/></filter><filter id="sc2" x="4.1" y="46.734" width="91.265" height="7.269" filterUnits="userSpaceOnUse" color-interpolation-filters="sRGB"><feFlood flood-opacity="0" result="A"/><feColorMatrix in="SourceAlpha" values="0 0 0 0 0 0 0 0 0 0 0 0 0 0 0 0 0 0 127 0"/><feOffset dy="0.712689"/><feGaussianBlur stdDeviation=".356"/><feColorMatrix values="0 0 0 0 0 0 0 0 0 0 0 0 0 0 0 0 0 0 0.2 0"/><feBlend in2="A"/><feBlend in="SourceGraphic"/></filter><radialGradient id="sc3" cx="0" cy="0" r="1" gradientUnits="userSpaceOnUse" gradientTransform="translate(50 33.5) rotate(90) scale(33 50)"><stop stop-color="#dcdbdb"/><stop offset="1" stop-color="#b7b8b8"/></radialGradient><clipPath id="sc4"><path d="M0 4.5a4 4 0 0 1 4-4h92a4 4 0 0 1 4 4v58a4 4 0 0 1-4 4H4a4 4 0 0 1-4-4v-58z" fill="#fff"/></clipPath><clipPath id="sc5"><path fill="#fff" transform="translate(6 6.5)" d="M0 0h60v10H0z"/></clipPath></defs></svg>